HIERARCHY
ROOT Hips
{
	OFFSET 0.000000 0.000000 0.000000
	CHANNELS 6 Xposition Yposition Zposition Zrotation Yrotation Xrotation 
	JOINT LHipJoint
	{
		OFFSET 0.000000 0.000000 0.000000
		CHANNELS 3 Zrotation Yrotation Xrotation
		JOINT LeftUpLeg
		{
			OFFSET 1.363060 -1.794630 0.839290
			CHANNELS 3 Zrotation Yrotation Xrotation
			JOINT LeftLeg
			{
				OFFSET 2.448110 -6.726130 0.000000
				CHANNELS 3 Zrotation Yrotation Xrotation
				JOINT LeftFoot
				{
					OFFSET 2.562200 -7.039590 0.000000
					CHANNELS 3 Zrotation Yrotation Xrotation
					JOINT LeftToeBase
					{
						OFFSET 0.157640 -0.433110 2.322550
						CHANNELS 3 Zrotation Yrotation Xrotation
						End Site
						{
							OFFSET 0.000000 0.000000 0.000000
						}
					}
				}
			}
		}
	}
	JOINT RHipJoint
	{
		OFFSET 0.000000 0.000000 0.000000
		CHANNELS 3 Zrotation Yrotation Xrotation
		JOINT RightUpLeg
		{
			OFFSET -1.305520 -1.794630 0.839290
			CHANNELS 3 Zrotation Yrotation Xrotation
			JOINT RightLeg
			{
				OFFSET -2.542530 -6.985550 0.000000
				CHANNELS 3 Zrotation Yrotation Xrotation
				JOINT RightFoot
				{
					OFFSET -2.568260 -7.056230 0.000000
					CHANNELS 3 Zrotation Yrotation Xrotation
					JOINT RightToeBase
					{
						OFFSET -0.164730 -0.452590 2.363150
						CHANNELS 3 Zrotation Yrotation Xrotation
						End Site
						{
							OFFSET 0.000000 0.000000 0.000000
						}
					}
				}
			}
		}
	}
	JOINT LowerBack
	{
		OFFSET 0.000000 0.000000 0.000000
		CHANNELS 3 Zrotation Yrotation Xrotation
		JOINT Spine
		{
			OFFSET 0.028270 2.035590 -0.193380
			CHANNELS 3 Zrotation Yrotation Xrotation
			JOINT Spine1
			{
				OFFSET 0.056720 2.048850 -0.042750
				CHANNELS 3 Zrotation Yrotation Xrotation
				JOINT Neck
				{
					OFFSET 0.000000 0.000000 0.000000
					CHANNELS 3 Zrotation Yrotation Xrotation
					JOINT Neck1
					{
						OFFSET -0.054170 1.746240 0.172020
						CHANNELS 3 Zrotation Yrotation Xrotation
						JOINT Head
						{
							OFFSET 0.104070 1.761360 -0.123970
							CHANNELS 3 Zrotation Yrotation Xrotation
							End Site
							{
								OFFSET 0.000000 0.000000 0.000000
							}
						}
					}
				}
				JOINT LeftShoulder
				{
					OFFSET 0.000000 0.000000 0.000000
					CHANNELS 3 Zrotation Yrotation Xrotation
					JOINT LeftArm
					{
						OFFSET 3.362410 1.200890 -0.311210
						CHANNELS 3 Zrotation Yrotation Xrotation
						JOINT LeftForeArm
						{
							OFFSET 4.983000 -0.000000 -0.000000
							CHANNELS 3 Zrotation Yrotation Xrotation
							JOINT LeftHand
							{
								OFFSET 3.483560 -0.000000 -0.000000
								CHANNELS 3 Zrotation Yrotation Xrotation
								JOINT LeftFingerBase
								{
									OFFSET 0.000000 0.000000 0.000000
									CHANNELS 3 Zrotation Yrotation Xrotation
									JOINT LeftHandIndex1
									{
										OFFSET 0.715260 -0.000000 -0.000000
										CHANNELS 3 Zrotation Yrotation Xrotation
										End Site
										{
											OFFSET 0.000000 0.000000 0.000000
										}
									}
								}
								JOINT LThumb
								{
									OFFSET 0.000000 0.000000 0.000000
									CHANNELS 3 Zrotation Yrotation Xrotation
									End Site
									{
										OFFSET 0.000000 0.000000 0.000000
									}
								}
							}
						}
					}
				}
				JOINT RightShoulder
				{
					OFFSET 0.000000 0.000000 0.000000
					CHANNELS 3 Zrotation Yrotation Xrotation
					JOINT RightArm
					{
						OFFSET -3.136600 1.374050 -0.404650
						CHANNELS 3 Zrotation Yrotation Xrotation
						JOINT RightForeArm
						{
							OFFSET -5.241900 -0.000000 -0.000000
							CHANNELS 3 Zrotation Yrotation Xrotation
							JOINT RightHand
							{
								OFFSET -3.444170 -0.000000 -0.000000
								CHANNELS 3 Zrotation Yrotation Xrotation
								JOINT RightFingerBase
								{
									OFFSET 0.000000 0.000000 0.000000
									CHANNELS 3 Zrotation Yrotation Xrotation
									JOINT RightHandIndex1
									{
										OFFSET -0.622530 -0.000000 -0.000000
										CHANNELS 3 Zrotation Yrotation Xrotation
										End Site
										{
											OFFSET 0.000000 0.000000 0.000000
										}
									}
								}
								JOINT RThumb
								{
									OFFSET 0.000000 0.000000 0.000000
									CHANNELS 3 Zrotation Yrotation Xrotation
									End Site
									{
										OFFSET 0.000000 0.000000 0.000000
									}
								}
							}
						}
					}
				}
			}
		}
	}
}
MOTION
Frames: 11
Frame Time: 0.008333
20.252102 16.452553 -9.322868 -172.443698 -76.284057 -174.157178 5.334594 -2.175988 -9.997402 -16.060916 -21.933005 -0.909592 -15.032998 13.087159 22.210755 5.814596 -1.484172 -5.318922 23.537270 -4.299500 -23.610060 6.962269 4.715162 -5.792902 2.024942 13.144074 -30.059472 4.647599 -8.394060 20.376291 11.302867 4.218009 -8.589443 1.034357 -5.432432 -2.589227 -6.655225 -0.313328 19.780185 4.695510 1.219123 -12.018585 5.543828 0.733522 -8.070333 -4.218419 1.037706 -7.816260 3.656431 0.943341 12.977841 -1.460242 3.644109 13.507928 6.798176 -5.750430 2.393662 -85.980626 -25.860243 -7.838590 -15.148230 -12.799914 0.338577 16.703042 -1.291807 -0.259111 -0.000000 0.000000 0.000000 -0.000000 0.000000 -0.000000 -0.000000 0.000000 0.000000 -7.948465 5.624287 1.190367 80.065320 6.656678 -9.498123 16.667822 20.584156 -1.442124 -21.992356 -4.887676 -0.074453 0.000000 0.000000 0.000003 -0.000000 -0.000000 -0.000000 0.000000 0.000000 0.000000 
20.165766 16.459009 -9.408438 -172.680768 -76.543026 -173.960343 4.873161 -2.198712 -9.903116 -15.082275 -21.516393 -1.589101 -15.561826 12.989289 23.604521 4.760670 -1.239493 -4.344290 23.524283 -3.737022 -23.950002 7.794609 4.743357 -6.010922 0.900458 12.876004 -30.244048 5.351032 -9.266020 21.855914 9.634600 4.186666 -8.799560 0.988922 -4.930072 -2.250912 -6.750222 -0.309065 19.870147 4.787167 1.210997 -12.148480 5.401967 0.711968 -8.039262 -4.010393 1.028514 -7.877229 3.665744 0.909289 13.021625 -1.583406 3.720709 13.639102 6.819162 -5.693975 2.436242 -85.926449 -25.664384 -8.980413 -15.003583 -11.750665 0.634765 16.946194 -2.005058 -0.271345 -0.000000 -0.000000 0.000000 -0.000000 -0.000000 0.000000 0.000000 -0.000000 -0.000000 -7.607058 5.606891 1.147583 79.984568 6.710816 -9.536832 16.615636 20.411841 -1.571606 -22.176868 -4.994017 -0.063548 0.000000 0.000000 0.000003 0.000000 -0.000000 0.000000 0.000000 0.000000 -0.000000 
20.075526 16.472523 -9.490796 -172.690433 -76.890035 -174.004406 4.513533 -2.332584 -9.710546 -14.085223 -21.298868 -2.512335 -15.875451 13.412664 25.091148 2.939501 -1.245850 -3.194733 25.081879 -5.118170 -24.616829 8.026406 4.866158 -6.262428 0.667280 12.575833 -29.728378 5.784983 -9.824252 22.262938 7.488671 4.077946 -9.186884 1.155701 -4.362221 -1.544305 -6.736411 -0.300870 19.918617 4.854663 1.173160 -12.281879 5.357501 0.630965 -7.892897 -3.954900 0.966439 -8.030126 3.685388 0.845589 13.079665 -1.550453 3.559865 13.730711 6.662043 -5.583459 2.424503 -85.855873 -25.465535 -9.922423 -14.803266 -10.653577 0.062148 17.491600 -1.892886 -0.287594 0.000000 -0.000000 0.000000 0.000000 0.000000 0.000000 0.000000 -0.000000 0.000000 -7.414095 5.540473 1.128311 79.946312 6.830367 -9.578570 16.564167 20.274253 -1.715007 -21.943985 -5.103197 -0.059753 0.000000 0.000000 0.000003 -0.000000 -0.000000 0.000000 -0.000000 -0.000000 0.000000 
19.991592 16.478078 -9.577117 -172.709507 -77.472458 -174.221651 4.331862 -2.429995 -9.697535 -13.444991 -21.069525 -3.283439 -16.260272 13.350364 27.093207 1.771031 -0.893094 -2.075381 24.896439 -4.686258 -24.701172 7.540273 5.011540 -6.502494 1.427934 12.170429 -28.645822 5.899060 -10.231649 21.959898 6.339390 3.989274 -9.918278 1.142008 -3.943955 -1.235877 -6.686752 -0.310636 20.015624 4.812725 1.080444 -12.223636 5.349376 0.552023 -7.908488 -3.936342 0.911315 -7.997973 3.791332 0.789617 13.047487 -1.552793 3.573981 14.236370 6.733715 -5.688304 2.505484 -85.860426 -25.296774 -10.873432 -14.668060 -9.487685 -0.471657 17.802039 -1.807756 -0.296039 -0.000000 0.000000 0.000000 -0.000000 0.000000 0.000000 -0.000000 0.000000 0.000000 -7.464839 5.424180 1.144533 80.156887 6.848464 -9.962443 16.648260 20.109610 -1.646331 -22.151550 -4.943717 -0.058603 0.000000 0.000000 0.000003 0.000000 0.000000 -0.000000 0.000000 0.000000 0.000000 
19.902553 16.489640 -9.656186 -172.963174 -77.878314 -174.132164 4.008196 -2.578314 -9.532370 -12.652562 -20.532890 -4.350928 -16.514076 13.258553 29.124802 -0.464363 -0.400687 -0.902820 25.193123 -4.883427 -24.868367 7.063996 5.187615 -6.805802 2.183975 11.684241 -27.552874 6.100249 -10.345132 21.649775 4.837288 3.759534 -10.524339 1.451235 -4.320900 -1.062029 -6.659159 -0.348628 20.061511 4.812980 0.964483 -12.244490 5.031039 0.429593 -8.067595 -3.643948 0.927422 -7.822492 3.868836 0.744624 13.072949 -1.320617 3.533187 14.161978 6.925741 -5.677030 2.520430 -85.806345 -24.817069 -11.835248 -14.427251 -8.342290 -0.668027 18.117404 -2.051230 -0.310214 0.000000 -0.000000 0.000000 -0.000000 0.000000 0.000000 0.000000 -0.000000 0.000000 -7.151767 5.581484 1.191560 80.284270 6.708735 -9.963632 16.574010 20.053424 -1.741140 -22.152643 -4.989667 -0.059292 0.000000 0.000000 0.000003 -0.000000 -0.000000 0.000000 0.000000 0.000000 -0.000000 
19.809309 16.494595 -9.746246 -172.653941 -78.266479 -174.609554 3.962631 -2.517015 -9.314084 -12.053682 -20.334129 -5.332830 -16.848293 13.208713 31.026596 -1.514890 0.113654 0.316172 23.990067 -4.620437 -23.855915 6.755550 5.194482 -6.951489 3.071507 11.244334 -26.736873 6.038958 -10.554723 21.506565 4.461469 3.861985 -11.109969 1.570483 -4.777821 -1.242578 -6.654159 -0.362715 19.949933 4.800271 1.008559 -12.150404 5.276791 0.460546 -7.915774 -3.870507 0.879577 -7.879267 3.965724 0.730523 13.069054 -0.790218 3.358464 14.334845 6.685379 -5.745588 2.619570 -85.781106 -24.724001 -12.620732 -14.168264 -7.225738 -1.003564 18.365758 -2.140177 -0.320199 -0.000000 -0.000000 0.000000 0.000000 -0.000000 0.000000 -0.000000 -0.000000 0.000000 -7.412888 5.423167 1.125262 80.462930 6.697512 -10.216532 16.607096 19.919095 -1.795682 -21.820654 -5.215247 -0.061015 0.000000 0.000000 0.000003 0.000000 0.000000 0.000000 0.000000 -0.000000 0.000000 
19.726426 16.504655 -9.821952 -173.172001 -78.702998 -174.247387 3.618645 -2.753229 -9.189938 -11.194889 -19.980914 -6.402871 -17.122924 13.514347 32.808594 -4.149321 0.462191 1.452625 24.512697 -5.839507 -23.622068 6.410172 5.461769 -7.280734 3.702674 10.438253 -25.888760 6.069990 -10.508949 21.605666 4.245328 3.795046 -11.636190 1.904764 -5.573464 -1.370842 -6.689056 -0.406673 20.075382 4.795821 0.897104 -12.205721 4.908011 0.336593 -7.918215 -3.546180 0.836736 -7.914925 3.980447 0.635680 13.081270 -0.529827 3.094974 14.692211 6.945126 -5.661525 2.518725 -85.731333 -24.337032 -13.385164 -13.935277 -6.202158 -1.651110 18.723136 -1.901569 -0.326556 -0.000000 0.000000 0.000000 -0.000000 -0.000000 -0.000000 -0.000000 0.000000 0.000000 -7.062283 5.495240 1.144214 80.612451 6.701018 -10.364186 16.605655 19.859974 -1.717187 -22.135764 -4.952157 -0.062968 0.000000 0.000000 0.000003 0.000000 -0.000000 -0.000000 -0.000000 0.000000 0.000000 
19.644895 16.504354 -9.906201 -172.911594 -79.309217 -174.662763 3.609270 -2.866598 -9.174073 -10.525399 -19.807587 -7.421763 -17.818282 13.351810 34.758960 -5.145092 0.860548 2.326652 21.785012 -4.454261 -21.768891 6.177387 5.681206 -7.418160 4.595059 9.252734 -25.601256 5.798723 -10.102883 22.337576 3.787785 3.880295 -12.345998 2.360249 -6.289976 -1.253899 -6.668729 -0.471755 20.115392 4.783904 0.768603 -12.158814 4.885300 0.212198 -7.856466 -3.502423 0.841760 -7.985251 3.988178 0.632147 13.058057 0.247888 2.839418 15.125513 7.069859 -5.540137 2.567816 -85.736477 -24.175760 -13.801362 -13.783962 -5.296180 -2.339921 18.920174 -1.599554 -0.325084 0.000000 0.000000 0.000000 0.000000 0.000000 0.000000 0.000000 0.000000 -0.000000 -7.083187 5.549793 1.089998 80.890932 6.648178 -10.453148 16.603110 19.872313 -1.751346 -21.931464 -5.114577 -0.064345 0.000000 0.000000 0.000003 -0.000000 -0.000000 -0.000000 -0.000000 0.000000 0.000000 
19.558108 16.510811 -9.976802 -173.300395 -79.801267 -174.352262 3.288513 -3.094096 -9.095753 -9.661528 -19.421860 -8.607587 -18.171250 13.521584 36.622541 -7.361332 1.192131 3.344101 19.646882 -3.217315 -20.388661 5.790260 5.877993 -7.559475 5.382987 8.217908 -25.329957 5.613919 -9.840339 22.867926 3.553659 3.985595 -12.817537 2.216799 -6.250370 -1.444116 -6.596793 -0.483222 20.128888 4.742879 0.689581 -12.221274 4.556306 0.142534 -8.240852 -3.293212 0.794284 -7.636881 3.963649 0.545269 13.106828 -0.132051 2.771696 15.043213 7.179729 -5.717741 2.638098 -85.677149 -23.559940 -14.593056 -13.565730 -4.336378 -2.700493 18.967457 -1.543995 -0.325008 -0.000000 0.000000 0.000000 -0.000000 0.000000 -0.000000 -0.000000 0.000000 -0.000000 -6.826370 5.658567 1.180856 81.086622 6.234244 -10.457780 16.528216 19.921924 -1.749389 -21.924558 -5.089777 -0.065852 0.000000 0.000000 0.000003 -0.000000 0.000000 0.000000 -0.000000 -0.000000 -0.000000 
19.471922 16.515766 -10.057538 -172.917557 -80.252565 -174.806931 3.225300 -3.230536 -8.950189 -8.893462 -19.085860 -9.823302 -18.537897 13.684205 38.405385 -9.696775 1.709525 4.425240 17.053508 -2.150985 -18.397027 5.712209 6.104841 -7.710623 6.134660 7.025787 -25.125413 5.386886 -9.298943 23.577158 3.110588 4.038963 -13.381078 2.100276 -6.359591 -1.715661 -6.573123 -0.531383 20.095038 4.752386 0.650750 -12.236496 4.448072 0.097326 -8.301919 -3.209532 0.763890 -7.579025 3.951673 0.504674 13.134057 0.015531 2.649124 15.130155 7.216658 -5.717734 2.627755 -85.617119 -23.162954 -14.922762 -13.308887 -3.478141 -3.345883 19.579096 -1.330477 -0.335759 -0.000000 -0.000000 0.000000 -0.000000 0.000000 0.000000 -0.000000 -0.000000 -0.000000 -6.715890 5.722119 1.157738 81.295337 6.029638 -10.435455 16.460921 19.966833 -1.899219 -22.008705 -5.407608 -0.046633 0.000000 0.000000 0.000003 0.000000 0.000000 0.000000 -0.000000 0.000000 -0.000000 
19.386787 16.519069 -10.123979 -173.689526 -80.674948 -174.126833 2.945418 -3.405278 -8.862265 -8.193048 -18.601307 -11.111750 -18.800108 13.888962 40.241305 -11.896284 2.389729 5.122637 12.609343 -0.169241 -14.966867 5.203458 6.279545 -7.907726 6.882646 6.177704 -24.675669 5.321523 -9.090243 23.864882 2.781978 4.020839 -13.877683 1.855984 -6.195760 -1.957669 -6.576229 -0.576786 20.108280 4.712241 0.530122 -12.246856 4.068841 -0.003339 -8.315475 -2.911970 0.760194 -7.590048 3.981125 0.457544 13.146593 0.016087 2.669506 15.237136 7.494416 -5.569530 2.617480 -85.585636 -22.796590 -14.998865 -13.143842 -2.863217 -3.953932 19.310018 -0.925310 -0.316894 -0.000000 -0.000000 0.000000 0.000000 0.000000 -0.000000 0.000000 -0.000000 0.000000 -6.430855 5.835724 1.209068 81.474030 5.992508 -10.607613 16.540661 19.999381 -1.733031 -21.921451 -5.229877 -0.058686 0.000000 0.000000 0.000003 -0.000000 0.000000 0.000000 0.000000 0.000000 0.000000 
